<mxfile host="app.diagrams.net" agent="Mozilla/5.0 (Windows NT 10.0; Win64; x64) AppleWebKit/537.36 (KHTML, like Gecko) Chrome/134.0.0.0 Safari/537.36 Edg/134.0.0.0" version="26.1.3">
  <diagram name="Page-1" id="KzjQDIYyVV_JsvxRAGoG">
    <mxGraphModel dx="1042" dy="565" grid="1" gridSize="10" guides="1" tooltips="1" connect="1" arrows="1" fold="1" page="1" pageScale="1" pageWidth="850" pageHeight="1100" math="0" shadow="0">
      <root>
        <mxCell id="0" />
        <mxCell id="1" parent="0" />
        <mxCell id="FHeYcHOUmCYN2fVGa4bh-3" value="" style="edgeStyle=orthogonalEdgeStyle;rounded=0;orthogonalLoop=1;jettySize=auto;html=1;" edge="1" parent="1" source="FHeYcHOUmCYN2fVGa4bh-1" target="FHeYcHOUmCYN2fVGa4bh-2">
          <mxGeometry relative="1" as="geometry" />
        </mxCell>
        <mxCell id="FHeYcHOUmCYN2fVGa4bh-1" value="While not at the goal" style="rounded=1;whiteSpace=wrap;html=1;" vertex="1" parent="1">
          <mxGeometry x="340" width="240" height="100" as="geometry" />
        </mxCell>
        <mxCell id="FHeYcHOUmCYN2fVGa4bh-5" value="" style="edgeStyle=orthogonalEdgeStyle;rounded=0;orthogonalLoop=1;jettySize=auto;html=1;" edge="1" parent="1" source="FHeYcHOUmCYN2fVGa4bh-2" target="FHeYcHOUmCYN2fVGa4bh-4">
          <mxGeometry relative="1" as="geometry" />
        </mxCell>
        <mxCell id="FHeYcHOUmCYN2fVGa4bh-9" value="" style="edgeStyle=orthogonalEdgeStyle;rounded=0;orthogonalLoop=1;jettySize=auto;html=1;" edge="1" parent="1" source="FHeYcHOUmCYN2fVGa4bh-2" target="FHeYcHOUmCYN2fVGa4bh-8">
          <mxGeometry relative="1" as="geometry" />
        </mxCell>
        <mxCell id="FHeYcHOUmCYN2fVGa4bh-12" value="" style="edgeStyle=orthogonalEdgeStyle;rounded=0;orthogonalLoop=1;jettySize=auto;html=1;" edge="1" parent="1" source="FHeYcHOUmCYN2fVGa4bh-2" target="FHeYcHOUmCYN2fVGa4bh-8">
          <mxGeometry relative="1" as="geometry" />
        </mxCell>
        <mxCell id="FHeYcHOUmCYN2fVGa4bh-13" value="" style="edgeStyle=orthogonalEdgeStyle;rounded=0;orthogonalLoop=1;jettySize=auto;html=1;" edge="1" parent="1" source="FHeYcHOUmCYN2fVGa4bh-2" target="FHeYcHOUmCYN2fVGa4bh-8">
          <mxGeometry relative="1" as="geometry" />
        </mxCell>
        <mxCell id="FHeYcHOUmCYN2fVGa4bh-14" value="" style="edgeStyle=orthogonalEdgeStyle;rounded=0;orthogonalLoop=1;jettySize=auto;html=1;" edge="1" parent="1" source="FHeYcHOUmCYN2fVGa4bh-2" target="FHeYcHOUmCYN2fVGa4bh-8">
          <mxGeometry relative="1" as="geometry" />
        </mxCell>
        <mxCell id="FHeYcHOUmCYN2fVGa4bh-15" style="edgeStyle=orthogonalEdgeStyle;rounded=0;orthogonalLoop=1;jettySize=auto;html=1;" edge="1" parent="1" source="FHeYcHOUmCYN2fVGa4bh-2" target="FHeYcHOUmCYN2fVGa4bh-16">
          <mxGeometry relative="1" as="geometry">
            <mxPoint x="580" y="280" as="targetPoint" />
          </mxGeometry>
        </mxCell>
        <mxCell id="FHeYcHOUmCYN2fVGa4bh-2" value="While not at the goal" style="rounded=1;whiteSpace=wrap;html=1;" vertex="1" parent="1">
          <mxGeometry x="340" y="140" width="240" height="100" as="geometry" />
        </mxCell>
        <mxCell id="FHeYcHOUmCYN2fVGa4bh-7" value="" style="edgeStyle=orthogonalEdgeStyle;rounded=0;orthogonalLoop=1;jettySize=auto;html=1;" edge="1" parent="1" source="FHeYcHOUmCYN2fVGa4bh-4" target="FHeYcHOUmCYN2fVGa4bh-6">
          <mxGeometry relative="1" as="geometry">
            <Array as="points">
              <mxPoint x="280" y="390" />
              <mxPoint x="280" y="390" />
            </Array>
          </mxGeometry>
        </mxCell>
        <mxCell id="FHeYcHOUmCYN2fVGa4bh-4" value="while wall in front" style="rounded=1;whiteSpace=wrap;html=1;" vertex="1" parent="1">
          <mxGeometry x="220" y="280" width="120" height="60" as="geometry" />
        </mxCell>
        <mxCell id="FHeYcHOUmCYN2fVGa4bh-20" value="" style="edgeStyle=orthogonalEdgeStyle;rounded=0;orthogonalLoop=1;jettySize=auto;html=1;" edge="1" parent="1" source="FHeYcHOUmCYN2fVGa4bh-6" target="FHeYcHOUmCYN2fVGa4bh-19">
          <mxGeometry relative="1" as="geometry" />
        </mxCell>
        <mxCell id="FHeYcHOUmCYN2fVGa4bh-6" value="if right is clear&amp;nbsp;&lt;div&gt;turn right&lt;/div&gt;&lt;div&gt;move&lt;/div&gt;" style="rounded=1;whiteSpace=wrap;html=1;" vertex="1" parent="1">
          <mxGeometry x="220" y="420" width="120" height="60" as="geometry" />
        </mxCell>
        <mxCell id="FHeYcHOUmCYN2fVGa4bh-11" value="" style="edgeStyle=orthogonalEdgeStyle;rounded=0;orthogonalLoop=1;jettySize=auto;html=1;" edge="1" parent="1" source="FHeYcHOUmCYN2fVGa4bh-8" target="FHeYcHOUmCYN2fVGa4bh-10">
          <mxGeometry relative="1" as="geometry" />
        </mxCell>
        <mxCell id="FHeYcHOUmCYN2fVGa4bh-8" value="while front is clear" style="rounded=1;whiteSpace=wrap;html=1;" vertex="1" parent="1">
          <mxGeometry x="380" y="280" width="120" height="60" as="geometry" />
        </mxCell>
        <mxCell id="FHeYcHOUmCYN2fVGa4bh-22" value="" style="edgeStyle=orthogonalEdgeStyle;rounded=0;orthogonalLoop=1;jettySize=auto;html=1;" edge="1" parent="1" source="FHeYcHOUmCYN2fVGa4bh-10" target="FHeYcHOUmCYN2fVGa4bh-21">
          <mxGeometry relative="1" as="geometry" />
        </mxCell>
        <mxCell id="FHeYcHOUmCYN2fVGa4bh-10" value="if right is clear&amp;nbsp;&lt;div&gt;turn right&lt;/div&gt;&lt;div&gt;move&lt;/div&gt;" style="rounded=1;whiteSpace=wrap;html=1;" vertex="1" parent="1">
          <mxGeometry x="380" y="420" width="120" height="60" as="geometry" />
        </mxCell>
        <mxCell id="FHeYcHOUmCYN2fVGa4bh-18" value="" style="edgeStyle=orthogonalEdgeStyle;rounded=0;orthogonalLoop=1;jettySize=auto;html=1;" edge="1" parent="1" source="FHeYcHOUmCYN2fVGa4bh-16" target="FHeYcHOUmCYN2fVGa4bh-17">
          <mxGeometry relative="1" as="geometry" />
        </mxCell>
        <mxCell id="FHeYcHOUmCYN2fVGa4bh-16" value="if at goal" style="rounded=1;whiteSpace=wrap;html=1;" vertex="1" parent="1">
          <mxGeometry x="530" y="280" width="120" height="60" as="geometry" />
        </mxCell>
        <mxCell id="FHeYcHOUmCYN2fVGa4bh-17" value="done" style="rounded=1;whiteSpace=wrap;html=1;" vertex="1" parent="1">
          <mxGeometry x="530" y="420" width="120" height="60" as="geometry" />
        </mxCell>
        <mxCell id="FHeYcHOUmCYN2fVGa4bh-19" value="else turn left" style="whiteSpace=wrap;html=1;rounded=1;" vertex="1" parent="1">
          <mxGeometry x="220" y="560" width="120" height="60" as="geometry" />
        </mxCell>
        <mxCell id="FHeYcHOUmCYN2fVGa4bh-21" value="else move" style="whiteSpace=wrap;html=1;rounded=1;" vertex="1" parent="1">
          <mxGeometry x="380" y="560" width="120" height="60" as="geometry" />
        </mxCell>
      </root>
    </mxGraphModel>
  </diagram>
</mxfile>
